<?xml version="1.0" encoding="UTF-8"?>
<svg id="Camada_1" xmlns="http://www.w3.org/2000/svg" version="1.1" viewBox="0 0 1080 1080">
  <!-- Generator: Adobe Illustrator 29.0.1, SVG Export Plug-In . SVG Version: 2.1.0 Build 192)  -->
  <defs>
    <style>
      .st0 {
        fill: #fff;
      }

      .st1 {
        fill: #8b5cf6;
      }
    </style>
  </defs>
  <path class="st1" d="M1011.85,510.9v219.49c-23.37,11.93-49.66,22.6-79.14,31.23-26.38,7.66-55.38,13.68-87.1,17.65l-48.11-132c49.46-6.01,95.83-24.34,135.2-52.37,31.33-22.31,58.39-50.73,79.14-83.99Z"/>
  <path class="st1" d="M629.23,778.4h-104.65c-62.95,0-122.4,19.98-171.28,54.7-48.88,34.82-87.29,84.48-107.95,143.83H68.15l25.22-69.15h.1l15.32-42.19.29-.68v-.1c26.77-56.74,93.21-154.41,244.22-198.44,7.37-2.13,14.94-4.17,22.7-6.01,23.67-5.72,49.17-10.18,76.72-13h131.13l45.39,131.03Z"/>
  <path class="st0" d="M897.02,976.94h-178.46l-62.46-180.3-6.3-18.23-42.48-122.79-2.91-8.24-66.24-191.36-55.67-160.61-78.17,224.53-44.32,127.44-6.69,19.01c-151.01,44.03-217.45,141.7-244.22,198.44l94.86-259.35L387.63,103.06h191.07l198.93,546.05,47.91,131.52,71.48,196.31Z"/>
</svg>