<svg width="1000" height="252" viewBox="0 0 1000 252" fill="none" xmlns="http://www.w3.org/2000/svg">
<path d="M225.1 231.725H215.808L198.477 215.054L215.808 198.233H225.1L207.698 215.054L225.1 231.725Z" fill="#8B5CF6"/>
<path d="M268.174 235.97C264.659 235.97 261.565 235.129 258.882 233.447C256.199 231.765 254.116 229.472 252.624 226.568C251.132 223.665 250.391 220.36 250.391 216.656C250.391 212.951 251.132 209.587 252.624 206.713C254.106 203.84 256.209 201.557 258.912 199.875C261.615 198.193 264.729 197.352 268.234 197.352C271.107 197.352 273.64 197.922 275.843 199.074C278.036 200.215 279.748 201.837 280.96 203.94V182.443H288.269V235.099H281.761L280.96 229.392C280.229 230.513 279.277 231.574 278.106 232.576C276.935 233.577 275.523 234.388 273.861 235.029C272.199 235.66 270.296 235.98 268.154 235.98L268.174 235.97ZM269.345 229.612C271.638 229.612 273.66 229.071 275.413 228C277.165 226.929 278.517 225.417 279.468 223.464C280.419 221.512 280.889 219.249 280.889 216.666C280.889 214.083 280.409 211.83 279.468 209.897C278.517 207.975 277.165 206.463 275.413 205.362C273.66 204.26 271.638 203.72 269.345 203.72C267.052 203.72 265.18 204.27 263.418 205.362C261.655 206.453 260.294 207.975 259.323 209.897C258.351 211.82 257.861 214.083 257.861 216.666C257.861 219.249 258.351 221.522 259.323 223.464C260.294 225.417 261.665 226.929 263.418 228C265.17 229.071 267.152 229.612 269.345 229.612Z" fill="#8B5CF6"/>
<path d="M329.61 235.97C326.096 235.97 322.982 235.169 320.249 233.557C317.515 231.945 315.383 229.702 313.851 226.829C312.319 223.955 311.548 220.611 311.548 216.806C311.548 213.001 312.319 209.507 313.851 206.603C315.383 203.7 317.515 201.437 320.249 199.805C322.982 198.173 326.146 197.352 329.761 197.352C333.375 197.352 336.459 198.153 339.052 199.765C341.635 201.377 343.638 203.509 345.05 206.163C346.462 208.816 347.172 211.76 347.172 214.974C347.172 215.464 347.162 215.985 347.132 216.546C347.112 217.106 347.072 217.727 347.022 218.408H316.895V213.212H339.863C339.713 210.138 338.692 207.735 336.789 206.013C334.887 204.28 332.524 203.419 329.691 203.419C327.688 203.419 325.866 203.87 324.204 204.771C322.542 205.672 321.22 206.994 320.219 208.716C319.217 210.448 318.717 212.631 318.717 215.264V217.307C318.717 220.04 319.217 222.343 320.219 224.215C321.22 226.098 322.552 227.509 324.204 228.461C325.856 229.412 327.668 229.882 329.62 229.882C331.963 229.882 333.886 229.372 335.398 228.35C336.91 227.329 338.031 225.937 338.762 224.185H346.071C345.44 226.428 344.359 228.441 342.857 230.223C341.345 232.005 339.483 233.407 337.26 234.428C335.037 235.449 332.494 235.96 329.62 235.96L329.61 235.97Z" fill="#8B5CF6"/>
<path d="M378.902 235.089L365.075 198.233H372.754L383.217 228.07L393.751 198.233H401.28L387.533 235.089H378.902Z" fill="#8B5CF6"/>
<path d="M437.405 235.97C433.891 235.97 430.777 235.169 428.044 233.557C425.31 231.945 423.178 229.702 421.646 226.829C420.114 223.955 419.343 220.611 419.343 216.806C419.343 213.001 420.114 209.507 421.646 206.603C423.178 203.7 425.31 201.437 428.044 199.805C430.777 198.173 433.941 197.352 437.556 197.352C441.17 197.352 444.254 198.153 446.847 199.765C449.43 201.377 451.433 203.509 452.845 206.163C454.256 208.816 454.967 211.76 454.967 214.974C454.967 215.464 454.957 215.985 454.927 216.546C454.907 217.106 454.867 217.727 454.817 218.408H424.689V213.212H447.658C447.508 210.138 446.487 207.735 444.584 206.013C442.682 204.28 440.319 203.419 437.485 203.419C435.483 203.419 433.661 203.87 431.999 204.771C430.337 205.672 429.015 206.994 428.014 208.716C427.012 210.448 426.512 212.631 426.512 215.264V217.307C426.512 220.04 427.012 222.343 428.014 224.215C429.015 226.098 430.347 227.509 431.999 228.461C433.651 229.412 435.463 229.882 437.415 229.882C439.758 229.882 441.681 229.372 443.193 228.35C444.704 227.329 445.826 225.937 446.557 224.185H453.866C453.235 226.428 452.154 228.441 450.652 230.223C449.14 232.005 447.278 233.407 445.055 234.428C442.832 235.449 440.289 235.96 437.415 235.96L437.405 235.97Z" fill="#8B5CF6"/>
<path d="M477.706 235.089V182.433H485.015V235.089H477.706Z" fill="#8B5CF6"/>
<path d="M526.487 235.97C523.022 235.97 519.918 235.169 517.165 233.557C514.412 231.945 512.239 229.692 510.657 226.788C509.075 223.885 508.284 220.531 508.284 216.736C508.284 212.941 509.085 209.437 510.697 206.533C512.309 203.63 514.502 201.377 517.275 199.765C520.049 198.153 523.173 197.352 526.637 197.352C530.101 197.352 533.265 198.153 535.999 199.765C538.732 201.377 540.885 203.62 542.467 206.493C544.049 209.367 544.84 212.761 544.84 216.656C544.84 220.551 544.049 223.945 542.467 226.819C540.885 229.692 538.702 231.935 535.918 233.547C533.145 235.159 529.991 235.96 526.487 235.96V235.97ZM526.487 229.682C528.489 229.682 530.301 229.192 531.933 228.22C533.566 227.249 534.887 225.797 535.878 223.865C536.88 221.942 537.38 219.539 537.38 216.666C537.38 213.792 536.89 211.389 535.918 209.467C534.947 207.544 533.636 206.093 532.004 205.111C530.372 204.14 528.579 203.65 526.627 203.65C524.674 203.65 522.872 204.14 521.21 205.111C519.548 206.083 518.226 207.534 517.225 209.467C516.224 211.389 515.723 213.792 515.723 216.666C515.723 219.539 516.224 221.942 517.225 223.865C518.226 225.787 519.538 227.239 521.17 228.22C522.802 229.202 524.574 229.682 526.477 229.682H526.487Z" fill="#8B5CF6"/>
<path d="M568.099 251.179V198.233H574.677L575.408 203.94C576.189 202.819 577.16 201.757 578.331 200.756C579.503 199.755 580.905 198.944 582.537 198.303C584.169 197.672 586.081 197.352 588.274 197.352C591.788 197.352 594.872 198.203 597.525 199.915C600.179 201.617 602.251 203.93 603.743 206.824C605.235 209.727 605.976 213.031 605.976 216.736C605.976 220.441 605.215 223.745 603.703 226.648C602.191 229.552 600.109 231.835 597.455 233.487C594.802 235.139 591.718 235.97 588.204 235.97C585.33 235.97 582.787 235.399 580.594 234.248C578.402 233.106 576.669 231.504 575.398 229.462V251.179H568.089H568.099ZM587.042 229.612C589.285 229.612 591.268 229.071 593 228C594.732 226.929 596.094 225.417 597.095 223.464C598.096 221.512 598.597 219.249 598.597 216.666C598.597 214.083 598.096 211.83 597.095 209.897C596.094 207.975 594.732 206.463 593 205.362C591.268 204.26 589.285 203.72 587.042 203.72C584.8 203.72 582.737 204.27 581.005 205.362C579.273 206.463 577.921 207.975 576.95 209.897C575.979 211.82 575.488 214.083 575.488 216.666C575.488 219.249 575.979 221.522 576.95 223.464C577.921 225.417 579.283 226.929 581.005 228C582.737 229.071 584.749 229.612 587.042 229.612Z" fill="#8B5CF6"/>
<path d="M645.846 235.97C642.331 235.97 639.217 235.169 636.484 233.557C633.751 231.945 631.618 229.702 630.086 226.829C628.554 223.955 627.783 220.611 627.783 216.806C627.783 213.001 628.554 209.507 630.086 206.603C631.618 203.7 633.751 201.437 636.484 199.805C639.217 198.173 642.381 197.352 645.996 197.352C649.61 197.352 652.694 198.153 655.288 199.765C657.871 201.377 659.873 203.509 661.285 206.163C662.697 208.816 663.408 211.76 663.408 214.974C663.408 215.464 663.398 215.985 663.368 216.546C663.338 217.106 663.308 217.727 663.258 218.408H633.13V213.212H656.099C655.948 210.138 654.927 207.735 653.025 206.013C651.122 204.28 648.759 203.419 645.936 203.419C643.933 203.419 642.111 203.87 640.449 204.771C638.787 205.672 637.465 206.994 636.464 208.716C635.463 210.448 634.962 212.631 634.962 215.264V217.307C634.962 220.04 635.463 222.343 636.464 224.215C637.465 226.098 638.797 227.509 640.449 228.461C642.101 229.412 643.913 229.882 645.856 229.882C648.199 229.882 650.121 229.372 651.633 228.35C653.145 227.329 654.266 225.937 654.997 224.185H662.306C661.676 226.428 660.594 228.441 659.092 230.223C657.58 232.005 655.718 233.407 653.495 234.428C651.273 235.449 648.729 235.96 645.856 235.96L645.846 235.97Z" fill="#8B5CF6"/>
<path d="M686.146 235.089V198.233H692.724L693.385 205.181C694.216 203.529 695.288 202.118 696.599 200.976C697.911 199.835 699.463 198.944 701.245 198.303C703.027 197.672 705.06 197.352 707.353 197.352V205.101H704.719C703.208 205.101 701.766 205.282 700.404 205.652C699.042 206.023 697.831 206.643 696.79 207.514C695.738 208.395 694.927 209.587 694.336 211.099C693.756 212.611 693.455 214.483 693.455 216.726V235.079H686.146V235.089Z" fill="#8B5CF6"/>
<path d="M725.703 242.478L743.986 178.849H751.155L732.872 242.478H725.703Z" fill="#8B5CF6"/>
<path d="M775.007 231.725L792.339 215.054L775.007 198.233H784.299L801.56 215.054L784.299 231.725H775.007Z" fill="#8B5CF6"/>
<path d="M347.154 155.484C337.382 155.484 328.641 153.071 320.921 148.265C313.201 143.449 307.154 136.791 302.758 128.3C298.363 119.81 296.17 110.248 296.17 99.6245C296.17 89.0012 298.403 79.0588 302.859 70.6383C307.314 62.2178 313.482 55.5595 321.332 50.6733C329.191 45.7872 338.002 43.3442 347.775 43.3442C355.424 43.3442 362.143 44.766 367.95 47.5895C373.757 50.423 378.423 54.4581 381.967 59.6946V0.0100079H410.643V152.931H385.161L381.977 138.273C379.855 141.247 377.201 144.08 374.017 146.773C370.833 149.467 367.039 151.589 362.653 153.141C358.258 154.693 353.101 155.474 347.154 155.474V155.484ZM353.952 130.423C359.609 130.423 364.606 129.111 368.921 126.498C373.237 123.875 376.601 120.23 379.014 115.564C381.417 110.889 382.628 105.512 382.628 99.4243C382.628 93.3367 381.427 87.96 379.014 83.2841C376.601 78.6083 373.247 74.9637 368.921 72.3504C364.596 69.7272 359.609 68.4255 353.952 68.4255C348.295 68.4255 343.69 69.7372 339.294 72.3504C334.899 74.9737 331.474 78.6183 328.991 83.2841C326.508 87.96 325.277 93.2666 325.277 99.214C325.277 105.161 326.518 110.899 328.991 115.564C331.464 120.24 334.869 123.885 339.184 126.498C343.499 129.121 348.425 130.423 353.942 130.423H353.952Z" fill="white"/>
<path d="M536.391 69.2566C532.005 61.3267 525.837 55.0288 517.907 50.3529C509.978 45.6771 500.706 43.3442 490.083 43.3442C479.459 43.3442 469.587 45.7872 461.307 50.6733C453.026 55.5595 446.618 62.2879 442.083 70.8486C437.547 79.4193 435.284 89.2916 435.284 100.476C435.284 111.66 437.587 120.971 442.183 129.252C446.779 137.532 453.227 143.98 461.507 148.576C469.787 153.171 479.309 155.474 490.073 155.474C498.423 155.474 506.003 153.912 512.801 150.798C519.6 147.685 525.327 143.439 530.003 138.053C534.678 132.676 538.003 126.658 539.985 120H510.678C508.976 123.544 506.393 126.448 502.929 128.711C499.454 130.974 495.099 132.105 489.862 132.105C484.626 132.105 480.02 130.934 476.055 128.601C472.09 126.268 469.006 122.944 466.814 118.618C465.001 115.054 463.95 110.979 463.63 106.403H542.528C542.809 104.561 542.949 102.758 542.949 100.986V96.2103C542.949 86.1577 540.756 77.1665 536.36 69.2366L536.391 69.2566ZM464.21 89.0113C464.781 85.6571 465.722 82.6733 467.054 80.0901C469.387 75.5645 472.611 72.2003 476.716 69.9975C480.821 67.8048 485.277 66.7034 490.093 66.7034C496.751 66.7034 502.308 68.6859 506.764 72.6508C511.229 76.6158 513.662 82.0726 514.093 89.0012H464.21V89.0113Z" fill="white"/>
<path d="M566.548 152.941V45.8974H592.03L594.793 65.6521C597.337 60.9762 600.561 57.0213 604.455 53.7572C608.35 50.5031 612.806 47.9499 617.832 46.1076C622.858 44.2653 628.415 43.3442 634.503 43.3442V73.7121H624.731C620.486 73.7121 616.551 74.2128 612.946 75.194C609.332 76.1852 606.178 77.7772 603.494 79.97C600.801 82.1627 598.748 85.1765 597.337 89.0012C595.915 92.826 595.214 97.6421 595.214 103.439V152.921H566.538L566.548 152.941Z" fill="white"/>
<path d="M697.162 155.484C687.389 155.484 678.899 153.922 671.67 150.809C664.451 147.695 658.784 143.379 654.678 137.852C650.573 132.325 648.23 126.098 647.67 119.159H676.125C676.836 121.852 678.038 124.295 679.74 126.488C681.442 128.681 683.705 130.413 686.538 131.695C689.372 132.966 692.766 133.607 696.731 133.607C700.696 133.607 703.67 133.076 706.073 132.015C708.476 130.954 710.288 129.502 711.489 127.66C712.691 125.817 713.292 123.905 713.292 121.922C713.292 118.949 712.441 116.646 710.739 115.024C709.036 113.402 706.563 112.09 703.309 111.099C700.055 110.108 696.09 109.116 691.414 108.125C686.318 107.134 681.322 105.892 676.446 104.411C671.56 102.929 667.204 101.046 663.379 98.7835C659.555 96.5206 656.511 93.617 654.248 90.0726C651.985 86.5382 650.844 82.1427 650.844 76.9061C650.844 70.5382 652.546 64.8411 655.94 59.8048C659.334 54.7785 664.29 50.7735 670.809 47.8098C677.317 44.836 685.177 43.3542 694.388 43.3542C707.274 43.3542 717.467 46.2578 724.966 52.0651C732.466 57.8723 736.931 65.8723 738.343 76.0651H711.369C710.518 72.811 708.646 70.2278 705.742 68.3154C702.839 66.403 698.984 65.4518 694.168 65.4518C689.071 65.4518 685.177 66.373 682.483 68.2153C679.79 70.0576 678.448 72.4606 678.448 75.4343C678.448 77.4168 679.329 79.189 681.101 80.7409C682.874 82.3029 685.387 83.6045 688.641 84.6658C691.895 85.7272 695.86 86.7584 700.536 87.7497C708.746 89.4518 715.965 91.3942 722.203 93.587C728.431 95.7797 733.317 98.8936 736.851 102.929C740.386 106.964 742.158 112.801 742.158 120.451C742.158 127.249 740.316 133.297 736.631 138.613C732.946 143.92 727.74 148.065 721.021 151.039C714.293 154.013 706.333 155.494 697.132 155.494L697.162 155.484Z" fill="white"/>
<path d="M816.951 155.484C806.759 155.484 797.587 153.111 789.447 148.365C781.307 143.62 774.859 137.041 770.123 128.611C765.377 120.19 763.004 110.528 763.004 99.6245C763.004 88.7209 765.377 78.6383 770.123 70.2078C774.869 61.7872 781.347 55.199 789.557 50.4531C797.767 45.7071 806.969 43.3342 817.162 43.3342C827.354 43.3342 836.736 45.7071 844.876 50.4531C853.016 55.199 859.454 61.7872 864.2 70.2078C868.946 78.6283 871.319 88.3705 871.319 99.4143C871.319 110.458 868.946 120.19 864.2 128.621C859.454 137.051 852.976 143.63 844.766 148.375C836.556 153.121 827.274 155.494 816.941 155.494L816.951 155.484ZM816.951 130.633C821.767 130.633 826.043 129.502 829.797 127.239C833.542 124.976 836.516 121.502 838.719 116.836C840.911 112.16 842.013 106.363 842.013 99.4243C842.013 92.4856 840.911 86.7184 838.719 82.1126C836.526 77.5169 833.552 74.0426 829.797 71.7096C826.043 69.3767 821.837 68.2053 817.162 68.2053C812.486 68.2053 808.451 69.3767 804.636 71.7096C800.811 74.0426 797.797 77.5169 795.605 82.1126C793.412 86.7184 792.311 92.4856 792.311 99.4243C792.311 106.363 793.402 112.17 795.605 116.836C797.797 121.512 800.771 124.976 804.526 127.239C808.271 129.502 812.416 130.633 816.951 130.633Z" fill="white"/>
<path d="M895.948 152.941V45.8974H921.219L923.342 63.3091C926.596 57.3617 931.232 52.5457 937.249 48.8711C943.267 45.1965 950.446 43.3542 958.806 43.3542C967.727 43.3542 975.227 45.1965 981.314 48.8711C987.402 52.5557 992.038 57.9324 995.222 65.0113C998.406 72.0901 999.998 80.801 999.998 91.1339V152.941H971.542V93.8974C971.542 85.3967 969.74 78.8886 966.125 74.3629C962.511 69.8373 956.954 67.5645 949.454 67.5645C944.638 67.5645 940.353 68.6959 936.608 70.9587C932.854 73.2215 929.92 76.4456 927.797 80.6208C925.675 84.796 924.613 89.8623 924.613 95.8098V152.941H895.938H895.948Z" fill="white"/>
<path d="M272.611 91.1439V152.941H244.145V93.8974C244.145 85.4067 242.333 78.8986 238.729 74.3629C235.114 69.8273 229.547 67.5745 222.048 67.5745C217.242 67.5745 212.946 68.6959 209.202 70.9687C205.447 73.2215 202.513 76.4556 200.391 80.6308C198.268 84.806 197.197 89.8623 197.197 95.8198V152.951H168.531V45.9074H193.802L195.635 60.9262L195.925 63.3191C196.386 62.5081 196.856 61.6871 197.367 60.9262C200.491 56.0701 204.646 52.0451 209.842 48.8711C215.85 45.1865 223.049 43.3542 231.399 43.3542C240.331 43.3542 247.83 45.1865 253.908 48.8711C260.005 52.5557 264.631 57.9324 267.825 65.0113C271.019 72.1101 272.611 80.811 272.611 91.1439Z" fill="white"/>
<path d="M165.147 71.3892V109.797C161.051 111.88 156.456 113.752 151.299 115.264C146.683 116.606 141.607 117.657 136.06 118.358L127.64 95.2591C136.29 94.2077 144.411 91.0037 151.299 86.0976C156.786 82.1927 161.512 77.2165 165.147 71.3993V71.3892Z" fill="#8B5CF6"/>
<path d="M98.1927 118.198H79.8798C68.8661 118.198 58.4631 121.692 49.9024 127.77C41.3517 133.867 34.6233 142.548 31.0088 152.941H0L4.41552 140.836H4.43554L7.1189 133.457L7.16896 133.337V133.317C11.8548 123.384 23.4793 106.293 49.9024 98.5932C51.194 98.2228 52.5156 97.8623 53.8773 97.5419C58.0225 96.5407 62.4781 95.7597 67.3041 95.2691H90.2528L98.1927 118.198Z" fill="#8B5CF6"/>
<path d="M145.051 152.931H113.822L102.889 121.382L101.787 118.188L94.3579 96.7009L93.8473 95.2591L82.2528 61.7772L72.5106 33.6721L58.8335 72.9612L51.0738 95.2591L49.9024 98.5832C23.4793 106.293 11.8548 123.384 7.16895 133.307L23.7697 87.9199L55.9099 0H89.3417L124.155 95.5494L132.536 118.568L145.041 152.921L145.051 152.931Z" fill="white"/>
</svg>